# xmcd
#
# Track frame offsets: 
#        150
#        10819
#        18402
#        26514
#        33103
#        44176
#        51677
#        60965
#        66889
#        73818
#        81336
#        90060
#        102392
#        109875
#        119239
#        125097
#        134723
#        143917
#        154725
#        162961
#        171156
#        183859
#        192334
#        199645
#        209710
#
# Disc length: 2948 seconds
#
# Revision: 0
# Processed by: cddbd v1.5.2PL0 Copyright (c) Steve Scherf et al.
# Submitted via: ExactAudioCopy v1.1
#
DISCID=770b8219
DTITLE=Various Artist - Bluegrass Power Picks_25 Mountain Classics
DYEAR=2016
DGENRE=Bluegrass
TTITLE0=Earl Taylor - Roll In My Sweet Baby's Arms
TTITLE1=Red Smiley - It's Raining Here This Morning
TTITLE2=Don Reno - Nine Pound Hammer
TTITLE3=Hylo Brown - Handsome Molly
TTITLE4=Mac Wiseman - Sitting On Top Of The World
TTITLE5=Jim Greer - Gonna Lay Down My Old Guitar
TTITLE6=Earl Taylor - Home Across The Blue Ridge Mountains
TTITLE7=Red Smiley - Shady Grove
TTITLE8=Don Reno - Whitehouse Blues
TTITLE9=Hylo Brown - Foggy Went A Courtin'
TTITLE10=Mac Wiseman - Wreck Of The Old '97
TTITLE11=Jim Greer - Girl I Left In Sunny Tennessee
TTITLE12=Frosty Mountain Boys - Slewfoot
TTITLE13=Earl Taylor - The Sun's Gonna Shine
TTITLE14=Red Smiley - Rock About My Sarah Jane
TTITLE15=Don Reno - Worried Man Blues
TTITLE16=Hylo Brown - Ground Hog
TTITLE17=Red White - The Coo Coo Bird
TTITLE18=Jim Greer - Watermelon On The Vine
TTITLE19=Bobby Smith - Whoa, Mule Whoa
TTITLE20=Earl Taylor - Ain't Nobody Gonna Miss Me When I'm Gone (2:26)
TTITLE21=Red Smiley - Oh! Monah
TTITLE22=Don Reno - Red Rockin' Chair 
TTITLE23=Hylo Brown - Walking Cane
TTITLE24=Frosty Mountain Boys - Mama Likes Bluegrass Music
EXTD=
EXTT0=
EXTT1=
EXTT2=
EXTT3=
EXTT4=
EXTT5=
EXTT6=
EXTT7=
EXTT8=
EXTT9=
EXTT10=
EXTT11=
EXTT12=
EXTT13=
EXTT14=
EXTT15=
EXTT16=
EXTT17=
EXTT18=
EXTT19=
EXTT20=
EXTT21=
EXTT22=
EXTT23=
EXTT24=
PLAYORDER=
